<svg width="1339" height="1024" viewBox="0 0 1339 1024" fill="none" xmlns="http://www.w3.org/2000/svg">
<path d="M581.452 1006.31C571.638 1066.82 590.627 1312.86 745.104 1812.95C941.538 1775.6 1337.99 1698.52 1352.34 1688.99C1366.69 1679.47 1540.46 1544.16 1625.56 1477.7C1594.17 1258.22 1521.97 801.391 1484.32 729.919C1437.26 640.578 1251.28 388.162 1214.72 339.753C1178.17 291.343 997.753 135.374 975.09 121.536C956.96 110.466 758.23 101.44 661.132 98.3103L336.737 127.615L97.3287 393.438L95.2014 505.857C194.325 601.223 398.28 795.146 421.112 807.904C443.943 820.663 537.519 945.489 581.452 1006.31Z" fill="#98FF98" fill-opacity="0.4"/>
<path d="M690.668 858.274C684.276 897.68 696.643 1057.91 797.245 1383.6C925.172 1359.27 1183.36 1309.07 1192.71 1302.87C1202.05 1296.67 1315.22 1208.55 1370.64 1165.27C1350.19 1022.33 1303.18 724.824 1278.66 678.278C1248.01 620.095 1126.89 455.71 1103.08 424.184C1079.28 392.657 961.782 291.083 947.023 282.072C935.216 274.862 805.794 268.984 742.559 266.946L531.298 286.031L375.385 459.146L373.999 532.359C438.553 594.465 571.378 720.756 586.247 729.065C601.116 737.374 662.056 818.667 690.668 858.274Z" fill="#98FF98" fill-opacity="0.6"/>
</svg>
